# xmcd
#
# Track frame offsets: 
#        150
#        24471
#        41631
#        64373
#        85605
#        103464
#        128407
#        169881
#
# Disc length: 2481 seconds
#
# Revision: 0
# Processed by: cddbd v1.5.2PL0 Copyright (c) Steve Scherf et al.
# Submitted via: ExactAudioCopyFreeDBPlugin 1.0
#
DISCID=6609af08
DTITLE=郝云 - 冲动
DYEAR=2016
DGENRE=Country
TTITLE0=一声叹息
TTITLE1=北京北京
TTITLE2=情谣
TTITLE3=四季不败
TTITLE4=如果生命只剩最后一天
TTITLE5=突然想到理想这个词
TTITLE6=活着
TTITLE7=回到那一天
EXTD=
EXTT0=
EXTT1=
EXTT2=
EXTT3=
EXTT4=
EXTT5=
EXTT6=
EXTT7=
PLAYORDER=
